<svg width="14" height="14" viewBox="0 0 14 14" fill="none" xmlns="http://www.w3.org/2000/svg">
<path d="M8.7499 3.1499C8.7499 3.61403 8.56553 4.05915 8.23734 4.38734C7.90915 4.71553 7.46403 4.8999 6.9999 4.8999C6.53577 4.8999 6.09065 4.71553 5.76247 4.38734C5.43428 4.05915 5.2499 3.61403 5.2499 3.1499C5.2499 2.68577 5.43428 2.24065 5.76247 1.91247C6.09065 1.58428 6.53577 1.3999 6.9999 1.3999C7.46403 1.3999 7.90915 1.58428 8.23734 1.91247C8.56553 2.24065 8.7499 2.68577 8.7499 3.1499ZM12.2499 3.4999C12.2499 3.87121 12.1024 4.2273 11.8399 4.48985C11.5773 4.7524 11.2212 4.8999 10.8499 4.8999C10.4786 4.8999 10.1225 4.7524 9.85995 4.48985C9.5974 4.2273 9.4499 3.87121 9.4499 3.4999C9.4499 3.1286 9.5974 2.7725 9.85995 2.50995C10.1225 2.2474 10.4786 2.0999 10.8499 2.0999C11.2212 2.0999 11.5773 2.2474 11.8399 2.50995C12.1024 2.7725 12.2499 3.1286 12.2499 3.4999ZM3.1499 4.8999C3.52121 4.8999 3.8773 4.7524 4.13985 4.48985C4.4024 4.2273 4.5499 3.87121 4.5499 3.4999C4.5499 3.1286 4.4024 2.7725 4.13985 2.50995C3.8773 2.2474 3.52121 2.0999 3.1499 2.0999C2.7786 2.0999 2.4225 2.2474 2.15995 2.50995C1.8974 2.7725 1.7499 3.1286 1.7499 3.4999C1.7499 3.87121 1.8974 4.2273 2.15995 4.48985C2.4225 4.7524 2.7786 4.8999 3.1499 4.8999ZM4.1999 6.4749C4.1999 5.9919 4.5919 5.5999 5.0749 5.5999H8.9249C9.4079 5.5999 9.7999 5.9919 9.7999 6.4749V9.7999C9.7999 10.5425 9.5049 11.2547 8.9798 11.7798C8.4547 12.3049 7.74251 12.5999 6.9999 12.5999C6.2573 12.5999 5.5451 12.3049 5.02 11.7798C4.4949 11.2547 4.1999 10.5425 4.1999 9.7999V6.4749ZM3.4999 6.4749C3.4999 6.1508 3.5979 5.8505 3.7652 5.5999H2.2749C1.7919 5.5999 1.3999 5.9919 1.3999 6.4749V9.0999C1.39987 9.39959 1.46398 9.69581 1.58792 9.96866C1.71187 10.2415 1.89278 10.4847 2.11849 10.6818C2.34421 10.8789 2.6095 11.0255 2.89655 11.1116C3.1836 11.1977 3.48575 11.2214 3.7827 11.181C3.59574 10.7446 3.49952 10.2747 3.4999 9.7999V6.4749ZM10.4999 9.7999C10.4999 10.2899 10.3991 10.7575 10.2171 11.181C10.3095 11.1936 10.4038 11.1999 10.4999 11.1999C11.0569 11.1999 11.591 10.9787 11.9848 10.5848C12.3787 10.191 12.5999 9.65686 12.5999 9.0999V6.4749C12.5999 5.9919 12.2079 5.5999 11.7249 5.5999H10.2346C10.4026 5.8505 10.4999 6.1508 10.4999 6.4749V9.7999Z" fill="white"/>
</svg>
