<svg width="90" height="18" viewBox="0 0 90 18" fill="none" xmlns="http://www.w3.org/2000/svg">
<path d="M11.187 7.2L9 0L6.813 7.2H0L5.562 11.169L3.447 18L9 13.779L14.562 18L12.447 11.169L18 7.2H11.187Z" fill="white"/>
<path d="M29.187 7.2L27 0L24.813 7.2H18L23.562 11.169L21.447 18L27 13.779L32.562 18L30.447 11.169L36 7.2H29.187Z" fill="white"/>
<path d="M47.187 7.2L45 0L42.813 7.2H36L41.562 11.169L39.447 18L45 13.779L50.562 18L48.447 11.169L54 7.2H47.187Z" fill="white"/>
<path d="M59.8627 14.5048L63 12.1063L66.1373 14.5048L64.9608 10.5506L67.902 8.47623H64.2418L63 4.45722L61.7582 8.47623H58.098L61.0392 10.5506L59.8627 14.5048ZM57.366 18L59.4758 11.0899L54 7.17978H60.8183L63 0L65.183 7.17978H72L66.5242 11.0899L68.634 18L63 13.7528L57.366 18Z" fill="white"/>
<path d="M77.8627 14.5048L81 12.1063L84.1373 14.5048L82.9608 10.5506L85.902 8.47623H82.2418L81 4.45722L79.7582 8.47623H76.098L79.0392 10.5506L77.8627 14.5048ZM75.366 18L77.4758 11.0899L72 7.17978H78.8183L81 0L83.183 7.17978H90L84.5242 11.0899L86.634 18L81 13.7528L75.366 18Z" fill="white"/>
</svg>
