<svg width="30" height="30" viewBox="0 0 30 30" fill="none" xmlns="http://www.w3.org/2000/svg">
<rect width="30" height="30" rx="15" fill="white"/>
<path d="M21.6359 8.61477C21.6359 8.61477 23.1161 8.05205 22.9927 9.41865C22.9516 9.98137 22.5816 11.9509 22.2938 14.0812L21.307 20.3916C21.307 20.3916 21.2248 21.3161 20.4847 21.4769C19.7447 21.6376 18.6346 20.9141 18.429 20.7533C18.2645 20.6328 15.3455 18.824 14.3176 17.9398C14.0298 17.6986 13.7008 17.2163 14.3587 16.6536L18.6757 12.6342C19.1691 12.1518 19.6624 11.0264 17.6067 12.393L11.8507 16.2114C11.8507 16.2114 11.1929 16.6134 9.95947 16.2516L7.28702 15.4478C7.28702 15.4478 6.30027 14.8448 7.98596 14.2419C12.0974 12.3528 17.1545 10.4235 21.6359 8.61477Z" fill="black"/>
</svg>
