<svg width="41" height="40" viewBox="0 0 41 40" fill="none" xmlns="http://www.w3.org/2000/svg">
<rect x="1" y="0.5" width="39" height="39" rx="19.5" stroke="white" stroke-opacity="0.52"/>
<path fill-rule="evenodd" clip-rule="evenodd" d="M22.3864 14.475H18.6136L17.0136 16.9125H13.46V25.525H27.54V16.9125H23.9864L22.3864 14.475ZM22.6856 13.5C22.7515 13.5 22.8163 13.5166 22.8744 13.5482C22.9324 13.5798 22.9819 13.6255 23.0184 13.6812L24.5 15.9375H27.7C27.9122 15.9375 28.1157 16.0231 28.2657 16.1755C28.4157 16.3278 28.5 16.5345 28.5 16.75V25.6875C28.5 25.903 28.4157 26.1097 28.2657 26.262C28.1157 26.4144 27.9122 26.5 27.7 26.5H13.3C13.0878 26.5 12.8843 26.4144 12.7343 26.262C12.5843 26.1097 12.5 25.903 12.5 25.6875V16.75C12.5 16.5345 12.5843 16.3278 12.7343 16.1755C12.8843 16.0231 13.0878 15.9375 13.3 15.9375H16.5L17.9816 13.6812C18.0181 13.6255 18.0676 13.5798 18.1256 13.5482C18.1837 13.5166 18.2485 13.5 18.3144 13.5H22.6856ZM20.5 23.0875C21.0941 23.0875 21.6638 22.8478 22.0839 22.4212C22.504 21.9945 22.74 21.4159 22.74 20.8125C22.74 20.2091 22.504 19.6305 22.0839 19.2038C21.6638 18.7772 21.0941 18.5375 20.5 18.5375C19.9059 18.5375 19.3362 18.7772 18.9161 19.2038C18.496 19.6305 18.26 20.2091 18.26 20.8125C18.26 21.4159 18.496 21.9945 18.9161 22.4212C19.3362 22.8478 19.9059 23.0875 20.5 23.0875ZM20.5 24.0625C19.6513 24.0625 18.8374 23.7201 18.2373 23.1106C17.6371 22.5011 17.3 21.6745 17.3 20.8125C17.3 19.9505 17.6371 19.1239 18.2373 18.5144C18.8374 17.9049 19.6513 17.5625 20.5 17.5625C21.3487 17.5625 22.1626 17.9049 22.7627 18.5144C23.3629 19.1239 23.7 19.9505 23.7 20.8125C23.7 21.6745 23.3629 22.5011 22.7627 23.1106C22.1626 23.7201 21.3487 24.0625 20.5 24.0625Z" fill="white" fill-opacity="0.94"/>
</svg>
