<svg width="26" height="26" viewBox="0 0 26 26" fill="none" xmlns="http://www.w3.org/2000/svg">
<path d="M18.2635 5.86816L13 11.1314L7.76379 5.89543C7.64813 5.77232 7.5088 5.67384 7.35415 5.6059C7.1995 5.53795 7.03272 5.50193 6.86382 5.5C6.50217 5.5 6.15533 5.64366 5.89961 5.89937C5.64389 6.15508 5.50022 6.50191 5.50022 6.86354C5.49704 7.03071 5.52806 7.19677 5.59137 7.35152C5.65468 7.50628 5.74895 7.64646 5.86839 7.76347L11.1728 12.9995L5.86839 18.3036C5.64365 18.5235 5.51187 18.8212 5.50022 19.1354C5.50022 19.497 5.64389 19.8438 5.89961 20.0996C6.15533 20.3553 6.50217 20.4989 6.86382 20.4989C7.0376 20.5061 7.21099 20.4771 7.37296 20.4137C7.53493 20.3504 7.68196 20.254 7.8047 20.1308L13 14.8675L18.2498 20.1171C18.3651 20.2361 18.5027 20.3311 18.6548 20.3967C18.807 20.4622 18.9706 20.4969 19.1362 20.4989C19.4978 20.4989 19.8447 20.3553 20.1004 20.0996C20.3561 19.8438 20.4998 19.497 20.4998 19.1354C20.503 18.9682 20.4719 18.8022 20.4086 18.6474C20.3453 18.4926 20.251 18.3525 20.1316 18.2354L14.8272 12.9995L20.1316 7.6953C20.3563 7.47544 20.4881 7.17771 20.4998 6.86354C20.4998 6.50191 20.3561 6.15508 20.1004 5.89937C19.8447 5.64366 19.4978 5.5 19.1362 5.5C18.8089 5.50409 18.4953 5.63635 18.2635 5.86816Z" fill="white" fill-opacity="0.52"/>
</svg>
