<svg width="14" height="14" viewBox="0 0 14 14" fill="none" xmlns="http://www.w3.org/2000/svg">
<path d="M6.83333 1C10.0551 1 12.6667 3.61158 12.6667 6.83333C12.6667 10.0551 10.0551 12.6667 6.83333 12.6667C3.61158 12.6667 1 10.0551 1 6.83333C1 3.61158 3.61158 1 6.83333 1ZM6.83333 2.16667C5.59566 2.16667 4.40867 2.65833 3.5335 3.5335C2.65833 4.40867 2.16667 5.59566 2.16667 6.83333C2.16667 8.07101 2.65833 9.258 3.5335 10.1332C4.40867 11.0083 5.59566 11.5 6.83333 11.5C8.07101 11.5 9.258 11.0083 10.1332 10.1332C11.0083 9.258 11.5 8.07101 11.5 6.83333C11.5 5.59566 11.0083 4.40867 10.1332 3.5335C9.258 2.65833 8.07101 2.16667 6.83333 2.16667ZM6.83333 3.33333C6.97621 3.33335 7.11411 3.38581 7.22088 3.48075C7.32765 3.57569 7.39587 3.70652 7.41258 3.84842L7.41667 3.91667V6.59183L8.99575 8.17092C9.10037 8.27589 9.16111 8.41675 9.16563 8.56489C9.17016 8.71303 9.11812 8.85733 9.02011 8.9685C8.92209 9.07966 8.78543 9.14935 8.63789 9.1634C8.49035 9.17745 8.343 9.13482 8.22575 9.04417L8.17092 8.99575L6.42092 7.24575C6.33026 7.15501 6.27203 7.03692 6.25525 6.90975L6.25 6.83333V3.91667C6.25 3.76196 6.31146 3.61358 6.42086 3.50419C6.53025 3.39479 6.67862 3.33333 6.83333 3.33333Z" fill="white"/>
</svg>
