<svg width="16" height="16" viewBox="0 0 16 16" fill="none" xmlns="http://www.w3.org/2000/svg">
<g clip-path="url(#clip0_130_606)">
<path d="M9.84011 2.01901L3.04611 8.57001C2.05911 9.52201 1.91311 11.087 2.84711 12.086C3.79811 13.107 5.42711 13.192 6.48711 12.276C6.52111 12.246 6.55444 12.2153 6.58711 12.184L12.2421 6.73201C12.2899 6.68678 12.328 6.63228 12.354 6.57184C12.38 6.51141 12.3934 6.4463 12.3934 6.38051C12.3934 6.31471 12.38 6.24961 12.354 6.18917C12.328 6.12874 12.2899 6.07424 12.2421 6.02901C12.1437 5.93575 12.0132 5.88377 11.8776 5.88377C11.742 5.88377 11.6116 5.93575 11.5131 6.02901L5.92011 11.421C5.34811 11.972 4.41511 12.078 3.78911 11.584C3.62189 11.4561 3.48441 11.2935 3.38615 11.1074C3.28789 10.9212 3.2312 10.7159 3.21998 10.5057C3.20876 10.2955 3.24329 10.0854 3.32117 9.88984C3.39906 9.69428 3.51845 9.51794 3.67111 9.37301L10.5701 2.72201C11.0618 2.25509 11.714 1.99477 12.3921 1.99477C13.0702 1.99477 13.7224 2.25509 14.2141 2.72201C14.4527 2.94814 14.6427 3.22051 14.7726 3.5225C14.9025 3.82449 14.9694 4.14978 14.9694 4.47851C14.9694 4.80724 14.9025 5.13253 14.7726 5.43452C14.6427 5.73651 14.4527 6.00888 14.2141 6.23501L7.30011 12.901C5.96711 14.186 3.80311 14.394 2.35011 13.237C0.810108 12.017 0.586108 9.82601 1.85011 8.34001C1.92452 8.25149 2.00398 8.16735 2.08811 8.08801L7.86811 2.51601C7.91589 2.47078 7.95395 2.41628 7.97996 2.35584C8.00597 2.29541 8.01939 2.2303 8.01939 2.16451C8.01939 2.09871 8.00597 2.03361 7.97996 1.97317C7.95395 1.91274 7.91589 1.85824 7.86811 1.81301C7.76961 1.71946 7.63895 1.66729 7.50311 1.66729C7.36726 1.66729 7.2366 1.71946 7.13811 1.81301L1.35811 7.38501C0.929045 7.79235 0.587372 8.28274 0.353889 8.82635C0.120407 9.36995 0 9.95539 0 10.547C0 11.1386 0.120407 11.7241 0.353889 12.2677C0.587372 12.8113 0.929045 13.3017 1.35811 13.709C3.54611 15.818 6.56011 15.019 8.01811 13.614L14.9431 6.93801C15.2772 6.62126 15.5432 6.23978 15.725 5.81685C15.9069 5.39391 16.0006 4.93837 16.0006 4.47801C16.0006 4.01765 15.9069 3.56211 15.725 3.13917C15.5432 2.71623 15.2772 2.33476 14.9431 2.01801C13.5341 0.660009 11.2491 0.660009 9.84011 2.01901Z" fill="black"/>
</g>
<defs>
<clipPath id="clip0_130_606">
<rect width="16" height="16" fill="white"/>
</clipPath>
</defs>
</svg>
