<svg width="40" height="40" viewBox="0 0 40 40" fill="none" xmlns="http://www.w3.org/2000/svg">
<rect x="0.5" y="0.5" width="39" height="39" rx="19.5" stroke="white" stroke-opacity="0.52"/>
<path fill-rule="evenodd" clip-rule="evenodd" d="M21.8864 14.475H18.1136L16.5136 16.9125H12.96V25.525H27.04V16.9125H23.4864L21.8864 14.475ZM22.1856 13.5C22.2515 13.5 22.3163 13.5166 22.3744 13.5482C22.4324 13.5798 22.4819 13.6255 22.5184 13.6812L24 15.9375H27.2C27.4122 15.9375 27.6157 16.0231 27.7657 16.1755C27.9157 16.3278 28 16.5345 28 16.75V25.6875C28 25.903 27.9157 26.1097 27.7657 26.262C27.6157 26.4144 27.4122 26.5 27.2 26.5H12.8C12.5878 26.5 12.3843 26.4144 12.2343 26.262C12.0843 26.1097 12 25.903 12 25.6875V16.75C12 16.5345 12.0843 16.3278 12.2343 16.1755C12.3843 16.0231 12.5878 15.9375 12.8 15.9375H16L17.4816 13.6812C17.5181 13.6255 17.5676 13.5798 17.6256 13.5482C17.6837 13.5166 17.7485 13.5 17.8144 13.5H22.1856ZM20 23.0875C20.5941 23.0875 21.1638 22.8478 21.5839 22.4212C22.004 21.9945 22.24 21.4159 22.24 20.8125C22.24 20.2091 22.004 19.6305 21.5839 19.2038C21.1638 18.7772 20.5941 18.5375 20 18.5375C19.4059 18.5375 18.8362 18.7772 18.4161 19.2038C17.996 19.6305 17.76 20.2091 17.76 20.8125C17.76 21.4159 17.996 21.9945 18.4161 22.4212C18.8362 22.8478 19.4059 23.0875 20 23.0875ZM20 24.0625C19.1513 24.0625 18.3374 23.7201 17.7373 23.1106C17.1371 22.5011 16.8 21.6745 16.8 20.8125C16.8 19.9505 17.1371 19.1239 17.7373 18.5144C18.3374 17.9049 19.1513 17.5625 20 17.5625C20.8487 17.5625 21.6626 17.9049 22.2627 18.5144C22.8629 19.1239 23.2 19.9505 23.2 20.8125C23.2 21.6745 22.8629 22.5011 22.2627 23.1106C21.6626 23.7201 20.8487 24.0625 20 24.0625Z" fill="white" fill-opacity="0.94"/>
</svg>
