<svg width="64" height="52" viewBox="0 0 64 52" fill="none" xmlns="http://www.w3.org/2000/svg">
<path fill-rule="evenodd" clip-rule="evenodd" d="M39.5456 3.9H24.4544L18.0544 13.65H3.84V48.1H60.16V13.65H45.9456L39.5456 3.9ZM40.7424 0C41.0059 0.000138289 41.2653 0.0663652 41.4975 0.192799C41.7297 0.319233 41.9276 0.501961 42.0736 0.72475L48 9.75H60.8C61.6487 9.75 62.4626 10.0924 63.0627 10.7019C63.6629 11.3114 64 12.138 64 13V48.75C64 49.612 63.6629 50.4386 63.0627 51.0481C62.4626 51.6576 61.6487 52 60.8 52H3.2C2.35131 52 1.53737 51.6576 0.937258 51.0481C0.337142 50.4386 0 49.612 0 48.75V13C0 12.138 0.337142 11.3114 0.937258 10.7019C1.53737 10.0924 2.35131 9.75 3.2 9.75H16L21.9264 0.72475C22.0724 0.501961 22.2703 0.319233 22.5025 0.192799C22.7347 0.0663652 22.9941 0.000138289 23.2576 0H40.7424ZM32 38.35C34.3763 38.35 36.6554 37.3913 38.3357 35.6847C40.016 33.9781 40.96 31.6635 40.96 29.25C40.96 26.8365 40.016 24.5219 38.3357 22.8153C36.6554 21.1087 34.3763 20.15 32 20.15C29.6237 20.15 27.3446 21.1087 25.6643 22.8153C23.984 24.5219 23.04 26.8365 23.04 29.25C23.04 31.6635 23.984 33.9781 25.6643 35.6847C27.3446 37.3913 29.6237 38.35 32 38.35ZM32 42.25C28.6052 42.25 25.3495 40.8804 22.949 38.4424C20.5486 36.0044 19.2 32.6978 19.2 29.25C19.2 25.8022 20.5486 22.4956 22.949 20.0576C25.3495 17.6196 28.6052 16.25 32 16.25C35.3948 16.25 38.6505 17.6196 41.051 20.0576C43.4514 22.4956 44.8 25.8022 44.8 29.25C44.8 32.6978 43.4514 36.0044 41.051 38.4424C38.6505 40.8804 35.3948 42.25 32 42.25Z" fill="white" fill-opacity="0.94"/>
</svg>
